<svg width="215" height="48" viewBox="0 0 215 48" fill="none" xmlns="http://www.w3.org/2000/svg">
<g clip-path="url(#clip0_2290_2901)">
<path d="M85.5051 48C83.2297 48 81.0807 46.7924 79.8925 44.8302C79.2857 43.849 78.957 42.6918 78.957 41.4843C78.957 40.2767 79.2857 39.1195 79.8925 38.1132C80.1706 37.6604 80.4992 37.2327 80.8532 36.8805L85.1512 32.3019C85.8591 31.5975 86.213 30.7421 86.213 29.8113C86.213 28.8805 85.8591 28.0251 85.2017 27.3711L80.8279 22.717C80.4993 22.3899 80.1706 21.9623 79.8925 21.5094C79.2857 20.5283 78.957 19.3711 78.957 18.1635C78.957 16.956 79.2857 15.7987 79.8925 14.7924C81.7128 11.7736 86.0866 10.7421 89.1458 12.7547C89.2975 12.8553 105.124 24.6541 105.352 24.8553C106.793 26.0377 107.678 27.8742 107.678 29.8113C107.678 31.7484 106.818 33.5849 105.301 34.8428C105.301 34.8428 105.2 34.9434 89.2216 46.8428C88.0586 47.6226 86.7945 48 85.5051 48ZM85.5051 14.6667C84.2916 14.6667 83.1539 15.3207 82.5218 16.3522C82.1932 16.8805 82.0162 17.5094 82.0162 18.1384C82.0162 18.7673 82.1932 19.3711 82.5218 19.8994C82.6988 20.1761 82.8505 20.4025 83.0528 20.5786L87.4266 25.2327C88.6148 26.4151 89.2975 28.0503 89.2975 29.7862C89.2975 31.522 88.6148 33.1572 87.376 34.3899L83.078 38.9685C82.8505 39.195 82.6735 39.4214 82.5218 39.6729C82.1932 40.2012 82.0162 40.8302 82.0162 41.4591C82.0162 42.088 82.1932 42.6918 82.5218 43.2201C83.5331 44.8805 85.8338 45.4088 87.4519 44.327C91.674 41.1572 102.95 32.7799 103.354 32.4528C104.138 31.7987 104.618 30.8428 104.618 29.8113C104.618 28.7799 104.163 27.7987 103.354 27.1446C102.773 26.6918 87.5024 15.3207 87.4013 15.2453C86.8451 14.8679 86.1878 14.6667 85.5051 14.6667Z" fill="#3E7EFF"/>
<path d="M101.129 36.3019C99.84 36.3019 98.5759 35.9245 97.4635 35.195C81.4346 23.2453 81.3334 23.1446 81.2576 23.0943C79.7912 21.9119 78.9316 20.0755 78.9316 18.1383C78.9316 16.2012 79.7912 14.3648 81.3082 13.1069C81.4851 12.9308 97.3118 1.15722 97.4382 1.05659C100.523 -1.0063 104.896 0.0503018 106.717 3.09433C107.324 4.07546 107.652 5.23269 107.652 6.44024C107.652 7.64779 107.324 8.80502 106.717 9.78615C106.439 10.239 106.11 10.6667 105.731 11.044L101.433 15.6226C100.725 16.327 100.371 17.1824 100.371 18.1132C100.371 19.044 100.725 19.8994 101.382 20.5534L105.756 25.2327C106.085 25.5597 106.413 25.9874 106.692 26.4402C107.298 27.4214 107.627 28.5786 107.627 29.7861C107.627 30.9937 107.298 32.1509 106.692 33.1321C105.579 35.0943 103.43 36.3019 101.129 36.3019ZM101.129 2.9937C100.447 2.9937 99.7642 3.19496 99.1827 3.59747C99.1321 3.64779 83.8617 15.0189 83.2549 15.4717C82.4711 16.1258 81.9908 17.0817 81.9908 18.1383C81.9908 19.195 82.4459 20.1509 83.2549 20.805C83.6594 21.1321 94.9353 29.5094 99.2333 32.7295C99.7642 33.0817 100.422 33.283 101.129 33.283C102.368 33.283 103.481 32.6541 104.113 31.5975C104.441 31.0692 104.618 30.4402 104.618 29.8113C104.618 29.1824 104.441 28.5786 104.113 28.0503C103.936 27.7736 103.784 27.5472 103.582 27.3711L99.208 22.6918C98.0197 21.5094 97.3371 19.8742 97.3371 18.1383C97.3371 16.4025 98.0197 14.7673 99.2585 13.5346L103.557 8.95596C103.784 8.72955 103.961 8.50313 104.113 8.25156C104.441 7.72326 104.618 7.09433 104.618 6.4654C104.618 5.83647 104.441 5.23269 104.113 4.70439C103.481 3.62263 102.368 2.9937 101.129 2.9937Z" fill="#3E7EFF"/>
<path d="M133.616 21.1572C132.959 20.7044 132.276 20.3522 131.568 20.1006C130.86 19.849 130.228 19.6478 129.647 19.4968L125.753 18.4402C125.273 18.3144 124.818 18.1635 124.363 17.9874C123.908 17.8113 123.529 17.5597 123.225 17.2578C122.922 16.9559 122.77 16.5534 122.77 16.0754C122.77 15.5471 122.947 15.0943 123.326 14.717C123.706 14.3396 124.161 14.0377 124.767 13.8365C125.349 13.6352 125.981 13.5346 126.638 13.5597C127.321 13.5849 127.953 13.7107 128.585 13.9874C129.217 14.239 129.748 14.6163 130.178 15.1195C130.633 15.6226 130.936 16.2264 131.088 16.9559L135.664 16.1761C135.31 14.7673 134.703 13.5849 133.894 12.6289C133.085 11.6729 132.049 10.9182 130.835 10.4151C129.622 9.91192 128.231 9.63519 126.689 9.63519C125.147 9.63519 123.756 9.86161 122.492 10.3396C121.228 10.8176 120.217 11.5723 119.458 12.5534C118.7 13.5346 118.32 14.7924 118.32 16.3019C118.32 17.3585 118.497 18.239 118.851 18.9434C119.205 19.6478 119.66 20.2012 120.191 20.6289C120.722 21.0566 121.304 21.3836 121.86 21.61C122.441 21.8365 122.947 22.0126 123.377 22.1383L129.217 23.849C129.647 23.9748 130.026 24.1258 130.304 24.3019C130.582 24.478 130.81 24.6541 130.962 24.8302C131.113 25.0063 131.24 25.2075 131.29 25.4339C131.366 25.6352 131.391 25.8616 131.391 26.088C131.391 26.717 131.189 27.2201 130.759 27.6478C130.329 28.0754 129.799 28.4025 129.141 28.6037C128.484 28.8302 127.801 28.9308 127.119 28.9308C125.88 28.9308 124.767 28.5786 123.781 27.8993C122.795 27.1949 122.163 26.2138 121.86 24.9308L117.436 25.5849C117.663 27.0943 118.194 28.4025 119.054 29.4842C119.913 30.566 121 31.4214 122.34 32C123.68 32.5786 125.172 32.8805 126.841 32.8805C127.978 32.8805 129.091 32.7295 130.178 32.4528C131.24 32.1509 132.226 31.7232 133.06 31.1446C133.92 30.566 134.577 29.8113 135.083 28.9308C135.588 28.0251 135.841 26.9937 135.841 25.7861C135.841 24.6541 135.639 23.7232 135.209 22.9937C134.804 22.2138 134.274 21.61 133.616 21.1572Z" fill="#171E77"/>
<path d="M144.538 10.9685H140.29V15.6226H137.434V18.8931H140.29V25.283C140.29 26.2893 140.29 27.195 140.316 27.9748C140.341 28.7547 140.543 29.5346 140.973 30.3144C141.428 31.1195 142.086 31.7233 142.97 32.1006C143.855 32.478 144.841 32.6541 145.954 32.6792C147.066 32.7044 148.204 32.6038 149.367 32.4025V28.9056C148.381 29.0314 147.471 29.0817 146.636 29.0314C145.827 28.9811 145.221 28.6541 144.841 28.0755C144.639 27.7736 144.538 27.3459 144.513 26.8176C144.487 26.2893 144.487 25.7107 144.487 25.0566V18.8679H149.342V15.5975H144.487V10.9685H144.538Z" fill="#171E77"/>
<path d="M164.233 16.2767C162.944 15.522 161.452 15.1446 159.758 15.1446C158.09 15.1446 156.623 15.522 155.334 16.2515C154.045 17.0063 153.059 18.0377 152.325 19.371C151.592 20.7044 151.238 22.239 151.238 24C151.238 25.7358 151.592 27.2453 152.3 28.5786C153.008 29.9119 153.994 30.9434 155.283 31.6981C156.573 32.4528 158.039 32.8302 159.733 32.8302C161.427 32.8302 162.893 32.4528 164.183 31.6981C165.472 30.9434 166.458 29.9119 167.191 28.5786C167.925 27.2453 168.278 25.7107 168.278 23.9748C168.278 22.239 167.925 20.7295 167.191 19.3962C166.534 18.088 165.523 17.0314 164.233 16.2767ZM162.818 27.522C162.135 28.4276 161.124 28.9056 159.758 28.9056C158.444 28.9056 157.432 28.4528 156.75 27.5723C156.067 26.6918 155.739 25.4842 155.739 24C155.739 23.0188 155.89 22.1635 156.168 21.4339C156.446 20.7044 156.902 20.1258 157.483 19.7232C158.064 19.3207 158.823 19.0943 159.758 19.0943C161.098 19.0943 162.11 19.5471 162.792 20.4276C163.475 21.3081 163.804 22.5157 163.804 24C163.829 25.4339 163.5 26.6163 162.818 27.522Z" fill="#171E77"/>
<path d="M178.619 15.849C178.139 16 177.709 16.1761 177.304 16.4277C176.773 16.7295 176.318 17.1321 175.964 17.61C175.762 17.8616 175.661 18.1635 175.484 18.4654V15.6226H171.742V32.3773H176.015V23.8239C176.015 23.1949 176.091 22.6163 176.268 22.088C176.445 21.5849 176.698 21.1321 177.051 20.7547C177.405 20.3773 177.81 20.0755 178.316 19.849C178.821 19.6226 179.377 19.4717 179.984 19.4214C180.591 19.371 181.147 19.4214 181.602 19.5723V15.6226C181.097 15.5723 180.591 15.5472 180.085 15.5723C179.605 15.6226 179.099 15.6981 178.619 15.849Z" fill="#171E77"/>
<path d="M190.931 27.0188L186.507 15.6226H182.107L188.883 32.2515L186.127 39.8239H190.046L199.577 15.6226H195.33L190.931 27.0188Z" fill="#171E77"/>
<path d="M215.001 15.6226H201.121V19.2704H208.453L200.186 31.849V32.3773H214.698V28.7044H206.759L215.001 16.1509V15.6226Z" fill="#171E77"/>
<path d="M8.82349 27.0188L4.39911 15.6226H0L6.80092 32.2515L4.01987 39.8239H7.9639L17.47 15.6226H13.2226L8.82349 27.0188Z" fill="#171E77"/>
<path d="M31.0712 16.2767C29.7818 15.522 28.2902 15.1446 26.5963 15.1446C24.9277 15.1446 23.4613 15.522 22.1719 16.2515C20.8825 17.0063 19.8965 18.0377 19.1633 19.371C18.4301 20.7044 18.0762 22.239 18.0762 24C18.0762 25.7358 18.4301 27.2453 19.138 28.5786C19.8459 29.9119 20.8319 30.9434 22.1213 31.6981C23.4107 32.4528 24.8771 32.8302 26.571 32.8302C28.2649 32.8302 29.7313 32.4528 31.0207 31.6981C32.3101 30.9434 33.2961 29.9119 34.0293 28.5786C34.7624 27.2453 35.1164 25.7107 35.1164 23.9748C35.1164 22.239 34.7624 20.7295 34.0293 19.3962C33.3466 18.088 32.3606 17.0314 31.0712 16.2767ZM29.6554 27.522C28.9728 28.4276 27.9615 28.9056 26.5963 28.9056C25.2816 28.9056 24.2703 28.4528 23.5877 27.5723C22.9051 26.6918 22.5764 25.4842 22.5764 24C22.5764 23.0188 22.7281 22.1635 23.0062 21.4339C23.2843 20.7044 23.7394 20.1258 24.3209 19.7232C24.9024 19.3207 25.6608 19.0943 26.5963 19.0943C27.9362 19.0943 28.9475 19.5471 29.6301 20.4276C30.3128 21.3081 30.6414 22.5157 30.6414 24C30.6414 25.4339 30.3128 26.6163 29.6554 27.522Z" fill="#171E77"/>
<path d="M49.7556 24.1258C49.7556 25.1572 49.6292 25.9874 49.4016 26.6415C49.1741 27.2704 48.8707 27.7484 48.5167 28.0754C48.1628 28.4025 47.7583 28.6289 47.3538 28.7295C46.9493 28.8553 46.5447 28.9056 46.1908 28.9056C45.2806 28.9056 44.598 28.7044 44.0924 28.3019C43.5867 27.8993 43.2328 27.3962 43.0305 26.7924C42.803 26.1887 42.6766 25.5849 42.6513 25.0063C42.6007 24.4025 42.6007 23.9245 42.6007 23.5471V15.6226H38.3027V25.0314C38.3027 25.3082 38.328 25.761 38.3533 26.3648C38.4039 26.9685 38.505 27.6478 38.7073 28.3773C38.9095 29.1069 39.2382 29.8365 39.6933 30.5157C40.1483 31.1949 40.8057 31.7736 41.64 32.2012C42.4743 32.6541 43.5362 32.8553 44.8761 32.8553C46.5195 32.8553 47.91 32.5031 48.9971 31.7987C49.5028 31.4717 49.9578 31.0692 50.3371 30.6163V32.3522H54.0788V15.6226H49.8061V24.1258H49.7556Z" fill="#171E77"/>
<path d="M65.2791 15.849C64.7987 16 64.3689 16.1761 63.9644 16.4276C63.4335 16.7295 62.9784 17.132 62.6245 17.61C62.4222 17.8616 62.3211 18.1635 62.1441 18.4654V15.6226H58.4023V32.3773H62.675V23.8239C62.675 23.1949 62.7509 22.6163 62.9279 22.088C63.1048 21.5849 63.3577 21.132 63.7116 20.7547C64.0656 20.3773 64.4701 20.0754 64.9757 19.849C65.4814 19.6226 66.0376 19.4717 66.6443 19.4214C67.2511 19.371 67.8073 19.4214 68.2624 19.5723V15.6226C67.7568 15.5471 67.2511 15.5471 66.7455 15.5723C66.2651 15.6226 65.7595 15.6981 65.2791 15.849Z" fill="#171E77"/>
</g>
<defs>
<clipPath id="clip0_2290_2901">
<rect width="215" height="48" fill="white"/>
</clipPath>
</defs>
</svg>
