<svg width="1024" height="1024" viewBox="0 0 1024 1024" fill="none" xmlns="http://www.w3.org/2000/svg">
<rect width="1024" height="1024" fill="#3E7EFF"/>
<path d="M378.647 935.936C339.742 935.936 302.997 914.611 282.68 879.958C272.305 862.632 266.686 842.196 266.686 820.871C266.686 799.546 272.305 779.11 282.68 761.339C287.435 753.342 293.055 745.79 299.107 739.57L372.595 658.713C384.699 646.274 390.751 631.169 390.751 614.731C390.751 598.293 384.699 583.188 373.46 571.637L298.675 489.448C293.055 483.672 287.435 476.12 282.68 468.123C272.305 450.797 266.686 430.36 266.686 409.036C266.686 387.711 272.305 367.275 282.68 349.504C313.805 296.192 388.59 277.977 440.896 313.518C443.49 315.295 714.1 523.656 717.991 527.211C742.631 548.091 757.761 580.523 757.761 614.731C757.761 648.94 743.063 681.371 717.126 703.584C717.126 703.584 715.397 705.362 442.193 915.5C422.308 929.272 400.694 935.936 378.647 935.936ZM378.647 347.283C357.898 347.283 338.445 358.834 327.638 377.048C322.018 386.378 318.992 397.485 318.992 408.591C318.992 419.698 322.018 430.36 327.638 439.69C330.664 444.577 333.257 448.575 336.716 451.685L411.501 533.875C431.818 554.755 443.49 583.632 443.49 614.287C443.49 644.941 431.818 673.819 410.636 695.588L337.148 776.444C333.257 780.443 330.231 784.441 327.638 788.884C322.018 798.213 318.992 809.32 318.992 820.427C318.992 831.533 322.018 842.196 327.638 851.525C344.929 880.847 384.267 890.176 411.933 871.073C484.125 815.095 676.924 667.155 683.84 661.379C697.241 649.828 705.454 632.946 705.454 614.731C705.454 596.516 697.673 579.19 683.84 567.639C673.898 559.642 412.798 358.834 411.069 357.501C401.558 350.837 390.319 347.283 378.647 347.283Z" fill="white"/>
<path d="M645.786 729.347C623.74 729.347 602.125 722.682 583.105 709.799C309.036 498.772 307.307 496.995 306.01 496.106C280.938 475.226 266.24 442.794 266.24 408.586C266.24 374.377 280.938 341.946 306.875 319.733C309.901 316.623 580.511 108.706 582.672 106.929C635.411 70.499 710.196 89.1582 741.321 142.914C751.696 160.241 757.315 180.677 757.315 202.002C757.315 223.327 751.696 243.763 741.321 261.089C736.566 269.086 730.946 276.639 724.462 283.303L650.974 364.159C638.87 376.599 632.818 391.704 632.818 408.142C632.818 424.58 638.87 439.685 650.109 451.236L724.894 533.869C730.514 539.645 736.134 547.197 740.889 555.194C751.263 572.52 756.883 592.957 756.883 614.281C756.883 635.606 751.263 656.043 740.889 673.369C721.868 708.022 685.124 729.347 645.786 729.347ZM645.786 141.137C634.114 141.137 622.443 144.692 612.5 151.8C611.636 152.688 350.536 353.497 340.161 361.494C326.76 373.045 318.547 389.927 318.547 408.586C318.547 427.245 326.328 444.127 340.161 455.678C347.077 461.454 539.876 609.395 613.365 666.261C622.443 672.48 633.682 676.035 645.786 676.035C666.968 676.035 685.988 664.928 696.796 646.269C702.415 636.939 705.441 625.832 705.441 614.726C705.441 603.619 702.415 592.957 696.796 583.627C693.77 578.74 691.176 574.742 687.718 571.632L612.932 488.998C592.615 468.118 580.943 439.24 580.943 408.586C580.943 377.932 592.615 349.054 613.797 327.285L687.285 246.429C691.176 242.43 694.202 238.432 696.796 233.989C702.415 224.66 705.441 213.553 705.441 202.446C705.441 191.34 702.415 180.677 696.796 171.348C685.988 152.244 666.968 141.137 645.786 141.137Z" fill="white"/>
</svg>
